<svg xmlns="http://www.w3.org/2000/svg" version="1.1" xmlns:xlink="http://www.w3.org/1999/xlink" xmlns:svgjs="http://svgjs.dev/svgjs" width="2000" height="1247" viewBox="0 0 2000 1247"><g transform="matrix(1,0,0,1,-1.2121212121212466,0.504858299595071)"><svg viewBox="0 0 396 247" data-background-color="#1d366f" preserveAspectRatio="xMidYMid meet" height="1247" width="2000" xmlns="http://www.w3.org/2000/svg" xmlns:xlink="http://www.w3.org/1999/xlink"><g id="tight-bounds" transform="matrix(1,0,0,1,0.2400000000000091,-0.09999999999999432)"><svg viewBox="0 0 395.52 247.2" height="247.2" width="395.52"><g><svg></svg></g><g><svg viewBox="0 0 395.52 247.2" height="247.2" width="395.52"><g transform="matrix(1,0,0,1,155.85748114285713,47.215199999999996)"><svg viewBox="0 0 83.80503771428572 152.7696" height="152.7696" width="83.80503771428572"><g><svg viewBox="0 0 83.80503771428572 152.7696" height="152.7696" width="83.80503771428572"><g><svg viewBox="0 0 83.80503771428572 152.7696" height="152.7696" width="83.80503771428572"><g><svg viewBox="0 0 83.80503771428572 152.7696" height="152.7696" width="83.80503771428572"><g id="textblocktransform"><svg viewBox="0 0 83.80503771428572 152.7696" height="152.7696" width="83.80503771428572" id="textblock"><g><svg viewBox="0 0 83.80503771428572 152.7696" height="152.7696" width="83.80503771428572"><g transform="matrix(1,0,0,1,0,0)"><svg width="83.80503771428572" viewBox="4 -35 19.200000762939453 35" height="152.7696" data-palette-color="#ffffff"><path d="M22.2-35L21.95-32 7.4-32 7.4-18.85 20.9-18.85 20.65-15.85 7.4-15.85 7.4-3 23.2-3 22.95 0 4 0 4-35 22.2-35Z" opacity="1" transform="matrix(1,0,0,1,0,0)" fill="#ffffff" class="undefined-text-0" data-fill-palette-color="primary" id="text-0"></path></svg></g></svg></g></svg></g></svg></g></svg></g></svg></g></svg></g><g><path d="M0 123.6c0-36.944 16.209-70.102 41.903-92.752v9.403c-21.608 21.182-35.014 50.7-35.015 83.349 0 32.649 13.406 62.167 35.015 83.349l0 9.403c-25.694-22.649-41.903-55.808-41.903-92.752zM123.6 0c30.402 0 58.24 10.976 79.768 29.183l-11.147 0c-19.26-14.022-42.974-22.294-68.621-22.295-25.647 0-49.361 8.272-68.621 22.295l-11.147 0c21.528-18.206 49.366-29.183 79.768-29.183zM123.6 247.2c-30.402 0-58.24-10.976-79.768-29.183l11.147 0c19.26 14.022 42.974 22.294 68.621 22.295 25.647 0 49.361-8.272 68.621-22.295l11.147 0c-21.528 18.206-49.366 29.183-79.768 29.183z" fill="#ffffff" stroke="transparent" data-fill-palette-color="tertiary"></path></g></svg></g><defs></defs></svg><rect width="395.52" height="247.2" fill="none" stroke="none" visibility="hidden"></rect></g></svg></g></svg>